# xmcd
#
# Track frame offsets:
# 150
# 15900
# 25275
# 43875
# 52050
# 66000
# 85725
# 98325
# 111900
# 125550
# 136500
# 155100
# 177525
# 193875
#
# Disc length: 2795 seconds
#
# Revision: 1
# Processed by: cddbd v1.4PL0 Copyright (c) Steve Scherf et al.
# Submitted via: CedeCatalogueitor 2.5 http://usuarios.lycos.es/kakasboy
#
DISCID=bb0ae90e
DTITLE=Elvis Presley - Elvis Country - I´m 10.000 Years Old
DYEAR=1970
DGENRE=
TTITLE0=I´m 10.000 Years Old
TTITLE1=Snowbird
TTITLE2=Tomorrow Never Comes
TTITLE3=Little Cabin On The Hill
TTITLE4=Whole Lotta Shakin´ Goin On
TTITLE5=Funny How Time Slips Away
TTITLE6=I Really Don´t Want To Know
TTITLE7=There Goes My Everything
TTITLE8=It´s Your Baby You Rock It
TTITLE9=The Fool
TTITLE10=Faded Love
TTITLE11=I Washed My Hands In Muddy Water
TTITLE12=Make The World Go Away
TTITLE13=I´m 10.000 Yeasr Old
EXTD=
EXTT0=
EXTT1=
EXTT2=
EXTT3=
EXTT4=
EXTT5=
EXTT6=
EXTT7=
EXTT8=
EXTT9=
EXTT10=
EXTT11=
EXTT12=
EXTT13=
PLAYORDER=
